<svg xmlns="http://www.w3.org/2000/svg" xmlns:xlink="http://www.w3.org/1999/xlink" viewBox="0,0,256,256" width="144px" height="144px"><g transform="translate(30.72,30.72) scale(0.76,0.76)"><g fill="#282626" fill-rule="nonzero" stroke="none" stroke-width="1" stroke-linecap="butt" stroke-linejoin="miter" stroke-miterlimit="10" stroke-dasharray="" stroke-dashoffset="0" font-family="none" font-weight="none" font-size="none" text-anchor="none" style="mix-blend-mode: normal"><path d="M-40.42105,296.42105v-336.84211h336.84211v336.84211z" id="bgRectangle"></path></g><g fill="none" fill-rule="nonzero" stroke="#ff5252" stroke-width="10.66667" stroke-linecap="butt" stroke-linejoin="miter" stroke-miterlimit="10" stroke-dasharray="" stroke-dashoffset="0" font-family="none" font-weight="none" font-size="none" text-anchor="none" style="mix-blend-mode: normal"><path d="M-31.90107,289.51623c-0.89203,0 -1.61516,-0.72313 -1.61516,-1.61516v-319.80214c0,-0.89203 0.72313,-1.61516 1.61516,-1.61516h319.80214c0.89203,0 1.61516,0.72313 1.61516,1.61516v319.80214c0,0.89203 -0.72313,1.61516 -1.61516,1.61516z" id="shape"></path></g><g fill="#ff5252" fill-rule="nonzero" stroke="none" stroke-width="1" stroke-linecap="butt" stroke-linejoin="miter" stroke-miterlimit="10" stroke-dasharray="" stroke-dashoffset="0" font-family="none" font-weight="none" font-size="none" text-anchor="none" style="mix-blend-mode: normal"><g transform="scale(5.33333,5.33333)"><path d="M5,10.885v11.761c0,0.878 0.289,1.732 0.823,2.43l11.577,15.139c0.378,0.495 0.965,0.785 1.588,0.785h9.951c0.835,0 1.302,-0.963 0.785,-1.619l-22.939,-29.115c-0.587,-0.745 -1.785,-0.33 -1.785,0.619z"></path><path d="M27.245,28.389l13.964,-18.07c0.583,-0.756 1.791,-0.343 1.791,0.611v12.465c0,0.395 -0.117,0.781 -0.336,1.109l-3.07,4.606c-0.371,0.556 -0.996,0.89 -1.664,0.89h-9.893c-0.831,0 -1.3,-0.954 -0.792,-1.611z"></path></g></g></g></svg>