<svg width="61" height="61" viewBox="0 0 61 61" fill="none" xmlns="http://www.w3.org/2000/svg">
<g id="&#240;&#159;&#166;&#134; icon &#34;Github&#34;">
<path id="Vector" d="M30.5 61C47.3447 61 61 47.3447 61 30.5C61 13.6553 47.3447 0 30.5 0C13.6553 0 0 13.6553 0 30.5C0 47.3447 13.6553 61 30.5 61Z" fill="#414868"/>
<path id="Vector_2" d="M30.494 15.6194C22.0648 15.6194 15.2381 22.4521 15.2381 30.8753C15.2381 37.6187 19.6105 43.3374 25.6688 45.3509C26.4313 45.4939 26.7113 45.0233 26.7113 44.6182C26.7113 44.2548 26.6994 43.2957 26.6935 42.0269C22.452 42.9502 21.5525 39.9777 21.5525 39.9777C20.8556 38.2144 19.8548 37.7438 19.8548 37.7438C18.4727 36.7966 19.962 36.8145 19.962 36.8145C21.493 36.9217 22.2972 38.3871 22.2972 38.3871C23.6554 40.7223 25.8714 40.0491 26.7411 39.656C26.8781 38.6671 27.2713 37.994 27.7061 37.6127C24.3166 37.2315 20.7543 35.9209 20.7543 30.0711C20.7543 28.4031 21.344 27.0449 22.3269 25.9786C22.1542 25.5914 21.6419 24.0426 22.458 21.9398C22.458 21.9398 23.7388 21.5287 26.6518 23.5065C27.8729 23.1669 29.1716 23.0001 30.4643 22.9942C31.7629 23.0001 33.0556 23.1669 34.2768 23.5065C37.1778 21.5347 38.4526 21.9398 38.4526 21.9398C39.2747 24.0426 38.7564 25.5914 38.6075 25.9786C39.5785 27.0449 40.1742 28.4091 40.1742 30.0711C40.1742 35.9328 36.606 37.2255 33.2104 37.6008C33.7466 38.0595 34.241 38.9947 34.241 40.4244C34.241 42.4677 34.2231 44.1059 34.2231 44.6003C34.2231 44.9994 34.4912 45.476 35.2716 45.3271C41.3835 43.3315 45.75 37.6127 45.75 30.8753C45.75 22.4521 38.9173 15.6194 30.494 15.6194Z" fill="white"/>
</g>
</svg>
