<svg width="61" height="61" viewBox="0 0 61 61" fill="none" xmlns="http://www.w3.org/2000/svg">
<path d="M30.5 2.54171C23.1634 2.46716 16.0973 5.30859 10.8548 10.4415C5.61223 15.5745 2.62214 22.5789 2.54167 29.9155C2.56994 35.7134 4.43507 41.3533 7.86916 46.0249C11.3033 50.6966 16.1296 54.1596 21.655 55.9167C23.0529 56.1709 23.5613 55.3321 23.5613 54.595C23.5613 53.858 23.5613 52.2313 23.5613 49.9438C15.7838 51.5959 14.1317 46.2838 14.1317 46.2838C13.6139 44.6162 12.5132 43.1907 11.0308 42.268C8.48917 40.5905 11.2342 40.6159 11.2342 40.6159C12.1127 40.7333 12.9532 41.0482 13.6927 41.5368C14.4323 42.0254 15.0515 42.6751 15.5042 43.4371C16.2929 44.8049 17.5872 45.8082 19.1083 46.2313C20.6294 46.6544 22.2558 46.4633 23.6375 45.6992C23.7796 44.3074 24.4099 43.0107 25.4167 42.0392C19.215 41.353 12.7083 39.0146 12.7083 28.5175C12.6529 25.7794 13.6646 23.127 15.5296 21.1213C14.6802 18.7704 14.7805 16.1811 15.8092 13.903C15.8092 13.903 18.1729 13.1659 23.4342 16.6988C28.014 15.4784 32.8335 15.4784 37.4133 16.6988C42.7508 13.1659 45.0383 13.903 45.0383 13.903C46.067 16.1811 46.1673 18.7704 45.3179 21.1213C47.2262 23.0902 48.2928 25.7248 48.2917 28.4667C48.2917 38.9892 41.7342 41.3021 35.5833 41.9884C36.2568 42.6423 36.7771 43.4373 37.1067 44.3162C37.4363 45.1952 37.5671 46.1362 37.4896 47.0717V54.5696C37.4896 54.5696 37.9979 56.1709 39.3958 55.8913C44.9056 54.1233 49.7157 50.6594 53.1391 45.9944C56.5626 41.3294 58.4243 35.7018 58.4583 29.9155C58.3779 22.5789 55.3878 15.5745 50.1452 10.4415C44.9027 5.30859 37.8366 2.46716 30.5 2.54171Z" fill="#414868"/>
</svg>
