<svg width="63" height="61" viewBox="0 0 63 61" fill="none" xmlns="http://www.w3.org/2000/svg">
<path d="M31.2703 0.00195437C13.9954 0.00195437 0 14.0091 0 31.2722C0 45.0957 8.95894 56.8123 21.3752 60.9458C22.9446 61.2409 23.5113 60.2735 23.5113 59.437C23.5113 58.6943 23.4938 56.7302 23.482 54.123C14.7791 56.007 12.9459 49.9191 12.9459 49.9191C11.5211 46.3152 9.46513 45.3478 9.46513 45.3478C6.63516 43.4149 9.68988 43.4559 9.68988 43.4559C12.8247 43.669 14.4742 46.6709 14.4742 46.6709C17.2632 51.4553 21.7915 50.0715 23.5837 49.2663C23.8573 47.2514 24.6723 45.8657 25.5596 45.0937C18.6175 44.31 11.3179 41.6227 11.3179 29.6403C11.3179 26.2182 12.5296 23.4312 14.5329 21.2423C14.1869 20.4586 13.1277 17.2729 14.8084 12.9654C14.8084 12.9654 17.4254 12.1309 23.4078 16.1726C25.9113 15.4788 28.5693 15.1329 31.2253 15.1153C33.8833 15.1329 36.5393 15.4807 39.0429 16.1726C44.9901 12.1309 47.6051 12.9654 47.6051 12.9654C49.2839 17.2729 48.2246 20.4566 47.9198 21.2423C49.9035 23.4312 51.1152 26.2201 51.1152 29.6403C51.1152 41.6501 43.8058 44.2983 36.8559 45.0624C37.9426 45.9986 38.9608 47.9237 38.9608 50.8455C38.9608 55.0279 38.9217 58.3973 38.9217 59.4155C38.9217 60.2285 39.469 61.2057 41.0794 60.8911C53.5875 56.8005 62.5367 45.0742 62.5367 31.2703C62.5367 14.0071 48.5413 0 31.2664 0L31.2703 0.00195437Z" fill="#414868"/>
</svg>
