<svg width="61" height="61" viewBox="0 0 61 61" fill="none" xmlns="http://www.w3.org/2000/svg">
<g id="&#240;&#159;&#166;&#134; icon &#34;instagram with circle icon&#34;">
<path id="Vector" d="M42.8843 21.1308C42.6196 20.4453 42.2143 19.8229 41.6945 19.3036C41.1746 18.7843 40.5518 18.3797 39.8661 18.1157C38.9218 17.766 37.9245 17.5812 36.9177 17.5693C35.2434 17.493 34.7414 17.474 30.5 17.474C26.2586 17.474 25.7566 17.493 24.0823 17.5693C23.0744 17.5808 22.076 17.7657 21.1308 18.1157C20.4453 18.3804 19.8229 18.7857 19.3036 19.3055C18.7843 19.8254 18.3797 20.4482 18.1157 21.134C17.766 22.0782 17.5812 23.0755 17.5693 24.0823C17.493 25.7566 17.474 26.2586 17.474 30.5C17.474 34.7414 17.493 35.2434 17.5693 36.9177C17.5808 37.9256 17.7657 38.924 18.1157 39.8692C18.3804 40.5547 18.7857 41.1771 19.3055 41.6964C19.8254 42.2157 20.4482 42.6203 21.134 42.8843C22.0782 43.234 23.0755 43.4188 24.0823 43.4307C25.7566 43.507 26.2586 43.5229 30.5 43.5229C34.7414 43.5229 35.2434 43.507 36.9177 43.4275C37.9254 43.417 38.9238 43.2333 39.8692 42.8843C40.5547 42.6196 41.1771 42.2143 41.6964 41.6945C42.2157 41.1746 42.6203 40.5518 42.8843 39.866C43.234 38.9218 43.4188 37.9245 43.4307 36.9177C43.507 35.2434 43.5229 34.7414 43.5229 30.5C43.5229 26.2586 43.507 25.7566 43.4276 24.0823C43.417 23.0746 43.2333 22.0762 42.8843 21.1308ZM30.5 38.6587C28.8864 38.6587 27.309 38.1802 25.9673 37.2838C24.6256 36.3873 23.5798 35.113 22.9623 33.6222C22.3448 32.1314 22.1832 30.4909 22.498 28.9083C22.8128 27.3257 23.5899 25.8719 24.7309 24.7309C25.8719 23.5899 27.3257 22.8128 28.9083 22.498C30.491 22.1832 32.1314 22.3448 33.6222 22.9623C35.1131 23.5798 36.3873 24.6255 37.2838 25.9672C38.1803 27.3089 38.6588 28.8864 38.6588 30.5C38.6588 32.6638 37.7992 34.739 36.2691 36.2691C34.7391 37.7992 32.6639 38.6587 30.5 38.6587ZM38.9796 23.9266C38.6026 23.9266 38.2341 23.8148 37.9206 23.6054C37.6071 23.3959 37.3628 23.0982 37.2185 22.7499C37.0742 22.4015 37.0365 22.0182 37.11 21.6485C37.1836 21.2787 37.3651 20.939 37.6317 20.6724C37.8983 20.4058 38.238 20.2243 38.6078 20.1507C38.9775 20.0772 39.3608 20.1149 39.7091 20.2592C40.0575 20.4035 40.3552 20.6478 40.5646 20.9613C40.7741 21.2748 40.8859 21.6433 40.8859 22.0204C40.8859 22.5259 40.6851 23.0108 40.3276 23.3683C39.9701 23.7258 39.4852 23.9266 38.9796 23.9266ZM35.7962 30.5C35.7962 31.5475 35.4856 32.5715 34.9036 33.4424C34.3217 34.3134 33.4945 34.9922 32.5268 35.393C31.559 35.7939 30.4941 35.8988 29.4668 35.6944C28.4394 35.4901 27.4957 34.9857 26.755 34.245C26.0144 33.5043 25.5099 32.5606 25.3056 31.5332C25.1012 30.5059 25.2061 29.441 25.607 28.4732C26.0078 27.5055 26.6866 26.6783 27.5576 26.0964C28.4286 25.5144 29.4525 25.2038 30.5 25.2038C31.9047 25.2038 33.2518 25.7618 34.245 26.755C35.2382 27.7483 35.7962 29.0954 35.7962 30.5ZM30.5 0C24.4677 0 18.5708 1.78879 13.5551 5.14018C8.53942 8.49156 4.63016 13.255 2.32169 18.8282C0.0132151 24.4013 -0.590787 30.5338 0.586063 36.4503C1.76291 42.3667 4.66776 47.8013 8.93326 52.0668C13.1988 56.3323 18.6333 59.2371 24.5498 60.414C30.4662 61.5908 36.5987 60.9868 42.1719 58.6783C47.745 56.3699 52.5084 52.4606 55.8598 47.4449C59.2112 42.4292 61 36.5323 61 30.5C61 22.4109 57.7866 14.6531 52.0668 8.93324C46.3469 3.21338 38.5891 0 30.5 0ZM46.2901 37.048C46.2632 38.3662 46.0129 39.6704 45.5499 40.9049C45.1418 41.96 44.5179 42.9181 43.718 43.718C42.9182 44.5179 41.96 45.1418 40.905 45.5498C39.6714 46.0125 38.3684 46.2628 37.0512 46.2901C35.3546 46.3664 34.8145 46.3854 30.5 46.3854C26.1855 46.3854 25.6454 46.3664 23.9489 46.2901C22.6317 46.2628 21.3286 46.0125 20.0951 45.5498C19.04 45.1418 18.0819 44.5179 17.282 43.718C16.4821 42.9181 15.8582 41.96 15.4502 40.9049C14.9875 39.6714 14.7372 38.3683 14.7099 37.0511C14.6337 35.3546 14.6146 34.8145 14.6146 30.5C14.6146 26.1855 14.6337 25.6454 14.7099 23.9489C14.7361 22.6318 14.9854 21.3288 15.447 20.0951C15.855 19.0391 16.4792 18.0801 17.2797 17.2797C18.0802 16.4792 19.0391 15.855 20.0951 15.447C21.3288 14.9854 22.6319 14.7361 23.9489 14.7099C25.6454 14.6336 26.1855 14.6146 30.5 14.6146C34.8145 14.6146 35.3546 14.6336 37.0512 14.7099C38.3682 14.7361 39.6712 14.9854 40.905 15.447C41.9603 15.8553 42.9187 16.4798 43.7186 17.2802C44.5184 18.0806 45.1422 19.0394 45.5499 20.0951C46.0126 21.3286 46.2629 22.6317 46.2901 23.9489C46.3664 25.6454 46.3854 26.1855 46.3854 30.5C46.3854 34.8145 46.3664 35.3514 46.2901 37.048Z" fill="#414868"/>
</g>
</svg>
